<svg xmlns="http://www.w3.org/2000/svg" viewBox="0 0 35 35"><title>balcon-icon</title><g id="Слой_2" data-name="Слой 2"><g id="Слой_1-2" data-name="Слой 1"><path d="M33.75,28.6H31.7v-6s0-.07,0-.1H34a1,1,0,0,0,0-2H28.75v-9a11.5,11.5,0,0,0-23,0v9H1a1,1,0,0,0,0,2H3.32s0,.06,0,.1v6h-2A1.25,1.25,0,0,0,0,29.85v3.9A1.25,1.25,0,0,0,1.25,35h32.5A1.25,1.25,0,0,0,35,33.75v-3.9A1.25,1.25,0,0,0,33.75,28.6Zm-4.05-6v6H25.1v-6s0-.07,0-.1h4.64S29.7,22.56,29.7,22.6Zm-17.82-.1h4.64s0,.06,0,.1v6H11.9v-6S11.88,22.53,11.88,22.5Zm6.6,0h4.64s0,.06,0,.1v6H18.5v-6S18.48,22.53,18.48,22.5Zm-.23-2V14h8.5v6.5Zm8.5-9V12h-8.5V2.05A9.52,9.52,0,0,1,26.75,11.5ZM16.25,2.05V12H7.75v-.5A9.52,9.52,0,0,1,16.25,2.05ZM7.75,14h8.5v6.5H7.75ZM5.28,22.5H9.92s0,.06,0,.1v6H5.3v-6S5.28,22.53,5.28,22.5ZM33,33H2V30.6H33Z"/></g></g></svg>