<svg xmlns="http://www.w3.org/2000/svg" width="132.106" height="50.257" viewBox="0 0 132.106 50.257">
  <g id="champ_LOGO" transform="translate(-302.527 -237.293)">
    <path id="Path_1" data-name="Path 1" d="M302.528,248.784V287.55l132.105-11.477V237.293Z" transform="translate(0)" fill="#161615"/>
    <g id="Group_3" data-name="Group 3" transform="translate(307.051 245.233)">
      <g id="Group_2" data-name="Group 2" transform="translate(0)">
        <path id="Path_2" data-name="Path 2" d="M323.209,271.471v-.916c0-1.9-1.7-2.158-3.8-1.973-3.524.311-3.863,1.479-3.863,4.863v3.7c0,3.542.154,5.014,3.863,4.687,2.565-.226,3.8-.526,3.8-3.308v-.7l6.366-.561v.7c0,6.672-2.256,8.673-9.489,9.311-6.305.556-10.91.519-10.91-8.145v-6.134c0-7.842,4.111-9.374,10.91-9.973,6.151-.542,9.489.9,9.489,6.973v.917Z" transform="translate(-309.176 -253.327)" fill="#fff"/>
        <path id="Path_3" data-name="Path 3" d="M347.611,269.491l8.066-.711v-8.917l6.182-.545v23.715l-6.182.544v-9.3l-8.066.711v9.3l-6.181.545V261.119l6.181-.545Z" transform="translate(-319.602 -252.177)" fill="#fff"/>
        <path id="Path_4" data-name="Path 4" d="M416.551,254.154l4.42,14.5.217-.019,4.2-15.263,10.045-.886V276.2l-6.181.545.618-18.235-.278-.039-5.811,18.757-5.347.471-5.842-17.73-.278.088.618,18.127-6.182.545V255.018Z" transform="translate(-340.746 -249.994)" fill="#fff"/>
        <path id="Path_5" data-name="Path 5" d="M458.271,274.862l-6.181.544V251.692l11.652-1.027c5.749-.507,7.913,1.484,7.913,7.681,0,6.672-1.453,8.886-7.913,9.456l-5.471.482Zm0-11.763,4.234-.373c2.349-.207,2.782-.688,2.782-3.756,0-2.434-.371-3.223-2.782-3.011l-4.234.374Z" transform="translate(-355.4 -249.386)" fill="#fff"/>
        <path id="Path_6" data-name="Path 6" d="M487.45,263.209l-5.007.441-.371-14.323,5.748-.507Zm0,9.359-5.007.442v-5.185l5.007-.442Z" transform="translate(-364.985 -248.821)" fill="#fff"/>
      </g>
      <path id="Path_7" data-name="Path 7" d="M385.017,279.921l-.657,4.641-9.692-5.186-2.844,10,22.856-1.985Z" transform="translate(-329.431 -258.589)" fill="#fff"/>
      <path id="Path_8" data-name="Path 8" d="M379.766,263.206l4.656,4.782,1.761-5.826,11.6,18.057-7.1-23.12-9.4.811Z" transform="translate(-331.987 -251.467)" fill="#0099dc"/>
    </g>
  </g>
</svg>
