<svg xmlns="http://www.w3.org/2000/svg" width="60.668" height="60.668" viewBox="0 0 60.668 60.668">
  <g id="Symbol_3_1" data-name="Symbol 3 – 1" transform="matrix(0.996, -0.087, 0.087, 0.996, -792.995, -1119.283)">
    <circle id="Ellipse_17" data-name="Ellipse 17" cx="5" cy="5" r="5" transform="matrix(0.999, -0.035, 0.035, 0.999, 718.322, 1190.866)" fill="#fc8b4c"/>
    <circle id="Ellipse_18" data-name="Ellipse 18" cx="5" cy="5" r="5" transform="matrix(0.999, -0.035, 0.035, 0.999, 736.753, 1232.631)" fill="#ff3e5c"/>
    <circle id="Ellipse_19" data-name="Ellipse 19" cx="5" cy="5" r="5" transform="matrix(0.999, -0.035, 0.035, 0.999, 692.484, 1233.778)" fill="#07baec"/>
    <circle id="Ellipse_16" data-name="Ellipse 16" cx="10" cy="10" r="10" transform="translate(713.744 1210.334)" fill="#fcd04c"/>
    <path id="cell" d="M49.437,42.875a6.518,6.518,0,0,0-3.331.912l-5.631-5.631a11.478,11.478,0,0,0-7.554-18.241v-7a6.562,6.562,0,1,0-3.281,0v7a11.48,11.48,0,0,0-8.493,16.766L10.712,44.358A6.564,6.564,0,1,0,12.655,47l10.438-7.678a11.463,11.463,0,0,0,15.063,1.151l5.631,5.631a6.56,6.56,0,1,0,5.651-3.232ZM6.563,52.719a3.281,3.281,0,1,1,3.281-3.281A3.285,3.285,0,0,1,6.563,52.719ZM28,6.563a3.281,3.281,0,1,1,3.281,3.281A3.285,3.285,0,0,1,28,6.563Zm3.281,32.922a8.2,8.2,0,1,1,8.2-8.2A8.212,8.212,0,0,1,31.281,39.484ZM49.437,52.719a3.281,3.281,0,1,1,3.281-3.281A3.285,3.285,0,0,1,49.437,52.719Zm0,0" transform="translate(692 1189)" fill="#161615"/>
  </g>
</svg>
