<svg xmlns="http://www.w3.org/2000/svg" width="60.668" height="60.668" viewBox="0 0 60.668 60.668">
  <g id="biological" transform="matrix(0.996, -0.087, 0.087, 0.996, 0, 4.881)">
    <ellipse id="Ellipse_20" data-name="Ellipse 20" cx="27" cy="27.5" rx="27" ry="27.5" transform="translate(0.488 0.402)" fill="#07baec"/>
    <path id="Path_64" data-name="Path 64" d="M41.848,14.529l-.194,10.914L39.18,34.73l-8.062,6.31-9.369-.82L15.9,34.8l-2.2-7.2,3.5-7.664L23.929,15.3l7.708-1.661Z" transform="translate(0 0)" fill="#fcd04c"/>
    <path id="Path_65" data-name="Path 65" d="M18.991,37.762,42,14.109l-.284,9-1.289,8.985L36.17,38.638,28.164,41.5Z" transform="translate(0 0)" fill="#fc8b4c"/>
    <path id="Path_20" data-name="Path 20" d="M28,0A28,28,0,1,0,56,28,28.06,28.06,0,0,0,28,0Zm0,52.719A24.719,24.719,0,1,1,52.719,28,24.747,24.747,0,0,1,28,52.719Zm0,0" fill="#161615"/>
    <path id="Path_21" data-name="Path 21" d="M147.146,112.165c-7.876-.83-20.263-.6-25.834,4.978-6.578,6.59-6.168,14.5-.266,20.63a13.528,13.528,0,0,0-.129,8.92l3.11-1.039a10.245,10.245,0,0,1-.274-5.531c5.69,4.059,12.541,3.817,18.425-2.078C147.744,132.468,147.977,120.074,147.146,112.165Zm-7.287,23.558c-4.859,4.868-10.165,4.957-14.809,1.27a10.364,10.364,0,0,1,1.446-1.818l1.055-1.056,5.994,2L134.581,133l-4.439-1.482,2.045-2.048,5.994,2,1.037-3.116-4.439-1.482,5.079-5.088-2.318-2.322-5.079,5.088-1.48-4.447-3.11,1.039,2,6-2.044,2.049-1.48-4.446-3.11,1.038,2,6-1.054,1.056a13.552,13.552,0,0,0-1.516,1.81c-2.476-2.966-5.468-8.749.968-15.2,3.71-3.716,11.611-4.386,16.826-4.386,1.5,0,2.779.055,3.671.109C144.37,119.19,144.635,130.938,139.859,135.723Zm0,0" transform="translate(-103.744 -99.598)" fill="#161615"/>
  </g>
</svg>
